<svg width="124" height="110" viewBox="0 0 124 110" fill="none" xmlns="http://www.w3.org/2000/svg">
<rect x="2" y="2" width="120" height="106" fill="white" stroke="#273A69" stroke-width="4"/>
<path d="M23.1361 49V17.5H36.4111C39.7711 17.5 42.7261 18.16 45.2761 19.48C47.8561 20.8 49.8511 22.645 51.2611 25.015C52.7011 27.385 53.4211 30.13 53.4211 33.25C53.4211 36.37 52.7011 39.115 51.2611 41.485C49.8511 43.855 47.8561 45.7 45.2761 47.02C42.7261 48.34 39.7711 49 36.4111 49H23.1361ZM27.6361 45.085H36.1411C38.7511 45.085 41.0011 44.59 42.8911 43.6C44.8111 42.61 46.2961 41.23 47.3461 39.46C48.3961 37.66 48.9211 35.59 48.9211 33.25C48.9211 30.88 48.3961 28.81 47.3461 27.04C46.2961 25.27 44.8111 23.89 42.8911 22.9C41.0011 21.91 38.7511 21.415 36.1411 21.415H27.6361V45.085Z" fill="#273A69"/>
<path d="M73.725 95V63.5H77.415L98.25 89.375H96.315V63.5H100.815V95H97.125L76.29 69.125H78.225V95H73.725Z" fill="#273A69"/>
<line x1="17.2007" y1="90.299" x2="104.215" y2="16.6479" stroke="#273A69" stroke-width="4"/>
</svg>
