<svg width="124" height="116" viewBox="0 0 124 116" fill="none" xmlns="http://www.w3.org/2000/svg">
<rect x="4" y="4" width="116" height="108" fill="white" stroke="#273A69" stroke-width="8"/>
<path d="M21.8453 53V14.5H39.3353C43.5153 14.5 47.2003 15.3067 50.3903 16.92C53.5803 18.4967 56.0736 20.715 57.8703 23.575C59.6669 26.435 60.5653 29.8267 60.5653 33.75C60.5653 37.6367 59.6669 41.0283 57.8703 43.925C56.0736 46.785 53.5803 49.0217 50.3903 50.635C47.2003 52.2117 43.5153 53 39.3353 53H21.8453ZM30.7553 45.685H38.8953C41.4619 45.685 43.6803 45.2083 45.5503 44.255C47.4569 43.265 48.9236 41.8717 49.9503 40.075C51.0136 38.2783 51.5453 36.17 51.5453 33.75C51.5453 31.2933 51.0136 29.185 49.9503 27.425C48.9236 25.6283 47.4569 24.2533 45.5503 23.3C43.6803 22.31 41.4619 21.815 38.8953 21.815H30.7553V45.685Z" fill="#273A69"/>
<path d="M65.565 102V63.5H72.935L95.65 91.22H92.075V63.5H100.875V102H93.56L70.79 74.28H74.365V102H65.565Z" fill="#273A69"/>
<line x1="15.8484" y1="91.5285" x2="106.237" y2="21.159" stroke="#273A69" stroke-width="8"/>
</svg>
